<svg width="549" height="549" viewBox="0 0 549 549" fill="none" xmlns="http://www.w3.org/2000/svg">
<path d="M549 419.875H0V420.15H549V419.875Z" fill="#EBEBEB"/>
<path d="M493.991 437.542H457.625V437.816H493.991V437.542Z" fill="#EBEBEB"/>
<path d="M363.68 440.529H354.139V440.803H363.68V440.529Z" fill="#EBEBEB"/>
<path d="M456.526 427.353H435.455V427.627H456.526V427.353Z" fill="#EBEBEB"/>
<path d="M105.024 429.197H57.6016V429.472H105.024V429.197Z" fill="#EBEBEB"/>
<path d="M121.757 429.197H114.807V429.472H121.757V429.197Z" fill="#EBEBEB"/>
<path d="M247.214 433.831H144.354V434.105H247.214V433.831Z" fill="#EBEBEB"/>
<path d="M260.227 370.904H48.2137C46.5528 370.901 44.9609 370.24 43.7875 369.064C42.6141 367.889 41.9551 366.296 41.9551 364.635V66.6047C41.9695 64.9533 42.635 63.3744 43.8068 62.2107C44.9786 61.0471 46.5623 60.3928 48.2137 60.39H260.227C261.889 60.39 263.484 61.0506 264.66 62.2263C265.836 63.4021 266.496 64.9968 266.496 66.6596V364.635C266.496 366.298 265.836 367.892 264.66 369.068C263.484 370.244 261.889 370.904 260.227 370.904ZM48.2137 60.6096C46.6256 60.6125 45.1035 61.2454 43.9816 62.3694C42.8597 63.4934 42.2296 65.0166 42.2296 66.6047V364.635C42.2296 366.223 42.8597 367.746 43.9816 368.87C45.1035 369.994 46.6256 370.627 48.2137 370.63H260.227C261.816 370.627 263.339 369.994 264.462 368.871C265.586 367.747 266.219 366.224 266.222 364.635V66.6047C266.219 65.0156 265.586 63.4924 264.462 62.3687C263.339 61.2451 261.816 60.6125 260.227 60.6096H48.2137Z" fill="#EBEBEB"/>
<path d="M497.735 370.904H285.711C284.049 370.901 282.456 370.24 281.281 369.065C280.106 367.89 279.444 366.297 279.441 364.635V66.6047C279.459 64.9523 280.127 63.3734 281.3 62.2101C282.474 61.0467 284.059 60.3928 285.711 60.39H497.735C499.384 60.3957 500.965 61.0513 502.135 62.2146C503.304 63.3779 503.968 64.9552 503.982 66.6047V364.635C503.982 366.294 503.325 367.885 502.154 369.06C500.983 370.235 499.394 370.899 497.735 370.904ZM285.711 60.6096C284.122 60.6125 282.599 61.2451 281.475 62.3687C280.351 63.4924 279.719 65.0156 279.716 66.6047V364.635C279.719 366.224 280.351 367.747 281.475 368.871C282.599 369.994 284.122 370.627 285.711 370.63H497.735C499.324 370.627 500.847 369.994 501.971 368.871C503.094 367.747 503.727 366.224 503.73 364.635V66.6047C503.727 65.0156 503.094 63.4924 501.971 62.3687C500.847 61.2451 499.324 60.6125 497.735 60.6096H285.711Z" fill="#EBEBEB"/>
<path d="M315.652 290.059H156.365V391.382H315.652V290.059Z" fill="#EBEBEB"/>
<path d="M315.652 290.059H156.365V296.921H315.652V290.059Z" fill="#E0E0E0"/>
<path d="M311.217 295.56C312.357 295.56 313.281 294.635 313.281 293.495C313.281 292.355 312.357 291.431 311.217 291.431C310.077 291.431 309.152 292.355 309.152 293.495C309.152 294.635 310.077 295.56 311.217 295.56Z" fill="#FAFAFA"/>
<path d="M304.344 295.56C305.484 295.56 306.408 294.635 306.408 293.495C306.408 292.355 305.484 291.431 304.344 291.431C303.203 291.431 302.279 292.355 302.279 293.495C302.279 294.635 303.203 295.56 304.344 295.56Z" fill="#FAFAFA"/>
<path d="M297.47 295.56C298.611 295.56 299.535 294.635 299.535 293.495C299.535 292.355 298.611 291.431 297.47 291.431C296.33 291.431 295.406 292.355 295.406 293.495C295.406 294.635 296.33 295.56 297.47 295.56Z" fill="#FAFAFA"/>
<path d="M404.625 318.376H245.338V419.7H404.625V318.376Z" fill="#F5F5F5"/>
<path d="M404.625 318.376H245.338V325.239H404.625V318.376Z" fill="#E0E0E0"/>
<path d="M402.252 321.802C402.252 322.21 402.13 322.609 401.904 322.949C401.677 323.288 401.354 323.553 400.977 323.709C400.6 323.865 400.185 323.906 399.785 323.826C399.384 323.747 399.016 323.55 398.728 323.262C398.439 322.973 398.242 322.605 398.163 322.205C398.083 321.804 398.124 321.389 398.28 321.012C398.436 320.635 398.701 320.312 399.04 320.086C399.38 319.859 399.779 319.738 400.187 319.738C400.735 319.738 401.26 319.955 401.647 320.342C402.034 320.729 402.252 321.254 402.252 321.802Z" fill="#FAFAFA"/>
<path d="M395.378 321.802C395.378 322.21 395.257 322.609 395.031 322.949C394.804 323.288 394.481 323.553 394.104 323.709C393.727 323.865 393.312 323.906 392.912 323.826C392.511 323.747 392.143 323.55 391.855 323.262C391.566 322.973 391.369 322.605 391.29 322.205C391.21 321.804 391.251 321.389 391.407 321.012C391.563 320.635 391.828 320.312 392.167 320.086C392.507 319.859 392.906 319.738 393.314 319.738C393.862 319.738 394.387 319.955 394.774 320.342C395.161 320.729 395.378 321.254 395.378 321.802Z" fill="#FAFAFA"/>
<path d="M388.505 321.802C388.505 322.212 388.383 322.614 388.153 322.954C387.924 323.295 387.598 323.559 387.218 323.714C386.838 323.868 386.42 323.906 386.018 323.821C385.616 323.737 385.248 323.535 384.962 323.241C384.676 322.947 384.483 322.574 384.41 322.17C384.337 321.766 384.386 321.349 384.55 320.973C384.715 320.597 384.988 320.279 385.335 320.058C385.681 319.838 386.086 319.727 386.496 319.738C387.034 319.752 387.545 319.976 387.92 320.361C388.296 320.747 388.506 321.264 388.505 321.802Z" fill="#FAFAFA"/>
<path d="M291.212 95.4052H290.816C290.992 94.46 291.084 93.5009 291.091 92.5395C291.088 88.348 289.421 84.3291 286.456 81.3663C283.491 78.4035 279.471 76.7392 275.28 76.7392H275.159C274.075 74.8729 272.51 73.3312 270.628 72.2745C268.746 71.2178 266.616 70.6847 264.458 70.7306C262.3 70.7766 260.194 71.4 258.359 72.5358C256.523 73.6717 255.026 75.2786 254.022 77.1894C252.923 76.8944 251.79 76.7431 250.652 76.7392C247.214 76.7397 243.91 78.0727 241.435 80.4581C238.959 82.8435 237.505 86.0956 237.377 89.5309C235.362 91.0512 233.874 93.1644 233.123 95.5736C232.371 97.9828 232.392 100.567 233.185 102.963C233.977 105.36 235.5 107.447 237.54 108.934C239.58 110.42 242.034 111.23 244.558 111.249C245.531 111.247 246.501 111.126 247.445 110.887H288.84C289.608 111.126 290.407 111.248 291.212 111.249C293.314 111.249 295.331 110.414 296.817 108.927C298.304 107.441 299.139 105.424 299.139 103.322C299.139 101.219 298.304 99.2029 296.817 97.7162C295.331 96.2295 293.314 95.3943 291.212 95.3943V95.4052Z" fill="#EBEBEB"/>
<path d="M417.998 126.567H417.691C417.828 125.843 417.898 125.107 417.9 124.371C417.9 121.167 416.627 118.095 414.362 115.83C412.097 113.565 409.025 112.293 405.822 112.293H405.734C404.907 110.859 403.711 109.675 402.269 108.862C400.828 108.05 399.195 107.64 397.541 107.674C395.887 107.709 394.272 108.188 392.867 109.06C391.461 109.932 390.315 111.166 389.549 112.633C388.075 112.234 386.53 112.175 385.029 112.459C383.529 112.742 382.112 113.362 380.886 114.272C379.659 115.182 378.654 116.357 377.947 117.711C377.24 119.064 376.848 120.56 376.802 122.087C375.24 123.239 374.082 124.856 373.494 126.706C372.906 128.556 372.917 130.544 373.525 132.387C374.134 134.23 375.309 135.834 376.884 136.97C378.458 138.105 380.35 138.714 382.292 138.71C383.153 138.708 384.011 138.586 384.839 138.348H415.956C416.79 138.65 417.68 138.765 418.563 138.686C419.446 138.607 420.301 138.336 421.068 137.891C421.835 137.446 422.496 136.839 423.003 136.111C423.51 135.384 423.852 134.554 424.004 133.681C424.156 132.807 424.115 131.911 423.884 131.055C423.653 130.199 423.237 129.404 422.666 128.726C422.094 128.048 421.381 127.503 420.577 127.13C419.773 126.757 418.896 126.565 418.009 126.567H417.998Z" fill="#EBEBEB"/>
<path d="M167.653 135.35H167.345C167.483 134.626 167.553 133.891 167.554 133.154C167.554 129.951 166.281 126.879 164.016 124.614C161.751 122.349 158.679 121.076 155.476 121.076H155.388C154.561 119.643 153.365 118.459 151.924 117.646C150.482 116.834 148.849 116.424 147.195 116.458C145.541 116.493 143.927 116.972 142.521 117.844C141.115 118.716 139.969 119.95 139.204 121.417C137.729 121.018 136.184 120.959 134.684 121.242C133.183 121.526 131.767 122.146 130.54 123.056C129.313 123.966 128.309 125.141 127.601 126.495C126.894 127.848 126.502 129.344 126.456 130.871C124.894 132.023 123.737 133.64 123.148 135.49C122.56 137.34 122.571 139.328 123.18 141.171C123.788 143.014 124.964 144.618 126.538 145.753C128.112 146.889 130.005 147.498 131.946 147.494C132.808 147.492 133.665 147.37 134.493 147.132H165.611C166.444 147.434 167.334 147.549 168.217 147.47C169.1 147.391 169.956 147.12 170.723 146.675C171.49 146.23 172.15 145.623 172.657 144.895C173.164 144.168 173.506 143.338 173.658 142.465C173.811 141.591 173.77 140.695 173.538 139.839C173.307 138.983 172.891 138.188 172.32 137.51C171.749 136.832 171.036 136.287 170.231 135.914C169.427 135.541 168.55 135.349 167.664 135.35H167.653Z" fill="#EBEBEB"/>
<path d="M86.5003 380.764L85.1168 378.81C84.866 378.464 84.5355 378.183 84.1532 377.992C83.7709 377.801 83.3481 377.705 82.9208 377.712H73.2364C72.8336 377.706 72.436 377.803 72.082 377.996C71.728 378.188 71.4298 378.469 71.2161 378.81L70.1181 380.732C69.9037 381.072 69.6052 381.352 69.2514 381.545C68.8977 381.737 68.5004 381.835 68.0978 381.83H62.2345C61.9096 381.827 61.5878 381.892 61.2893 382.02C60.9909 382.149 60.7222 382.337 60.5004 382.575C60.2785 382.812 60.1083 383.093 60.0005 383.399C59.8926 383.706 59.8495 384.031 59.8738 384.355L61.7514 416.845C61.798 417.522 62.0967 418.157 62.5887 418.624C63.0806 419.092 63.7299 419.358 64.4085 419.37H110.426C110.751 419.373 111.072 419.308 111.371 419.179C111.669 419.051 111.938 418.862 112.16 418.625C112.382 418.388 112.552 418.107 112.66 417.801C112.768 417.494 112.811 417.169 112.786 416.845L110.898 384.421C110.856 383.744 110.561 383.107 110.07 382.639C109.579 382.171 108.93 381.905 108.252 381.895H88.6523C88.23 381.889 87.8151 381.783 87.4413 381.587C87.0674 381.39 86.745 381.109 86.5003 380.764Z" fill="#E0E0E0"/>
<path d="M112.852 384.992H70.6883C69.8261 385.003 68.998 385.33 68.3606 385.911C67.7233 386.491 67.3209 387.286 67.2296 388.143L64.6932 416.285C64.6511 416.687 64.6951 417.095 64.8224 417.479C64.9497 417.863 65.1573 418.216 65.4315 418.514C65.7056 418.813 66.04 419.049 66.4125 419.208C66.785 419.367 67.1871 419.444 67.592 419.436H109.799C110.662 419.423 111.49 419.095 112.129 418.515C112.767 417.935 113.173 417.142 113.269 416.285L115.805 388.143C115.85 387.735 115.806 387.322 115.676 386.933C115.546 386.544 115.334 386.187 115.053 385.888C114.773 385.589 114.431 385.353 114.05 385.199C113.67 385.044 113.261 384.973 112.852 384.992Z" fill="#F0F0F0"/>
<path d="M458.646 381.226L457.273 379.304C457.021 378.959 456.69 378.68 456.308 378.489C455.926 378.298 455.504 378.201 455.077 378.206H445.349C444.946 378.197 444.547 378.294 444.193 378.487C443.839 378.679 443.541 378.961 443.329 379.304L442.165 381.226C441.951 381.567 441.653 381.848 441.299 382.04C440.945 382.232 440.547 382.33 440.144 382.324H434.336C434.011 382.321 433.689 382.386 433.391 382.514C433.092 382.643 432.824 382.831 432.602 383.069C432.38 383.306 432.21 383.587 432.102 383.893C431.994 384.2 431.951 384.525 431.975 384.849L433.864 417.339C433.905 418.016 434.201 418.652 434.692 419.12C435.182 419.589 435.832 419.854 436.51 419.864H482.571C482.896 419.867 483.218 419.802 483.516 419.673C483.815 419.545 484.083 419.356 484.305 419.119C484.527 418.882 484.697 418.601 484.805 418.295C484.913 417.988 484.956 417.663 484.932 417.339L483.054 384.849C483.008 384.172 482.709 383.537 482.217 383.069C481.725 382.602 481.076 382.336 480.397 382.324H460.798C460.378 382.321 459.965 382.22 459.592 382.03C459.218 381.839 458.894 381.564 458.646 381.226Z" fill="#E0E0E0"/>
<path d="M484.998 385.453H442.846C441.982 385.464 441.153 385.79 440.514 386.371C439.875 386.952 439.47 387.746 439.376 388.604L436.84 416.746C436.798 417.149 436.842 417.556 436.969 417.94C437.096 418.325 437.304 418.678 437.578 418.976C437.852 419.274 438.187 419.51 438.559 419.669C438.932 419.828 439.334 419.906 439.738 419.897H481.891C482.753 419.884 483.582 419.557 484.22 418.976C484.859 418.396 485.264 417.603 485.36 416.746L487.897 388.604C487.941 388.201 487.898 387.793 487.771 387.408C487.645 387.023 487.437 386.669 487.163 386.371C486.888 386.072 486.553 385.836 486.18 385.678C485.806 385.519 485.403 385.443 484.998 385.453Z" fill="#F0F0F0"/>
<path d="M326.105 354.972L324.722 353.051C324.471 352.705 324.141 352.424 323.758 352.233C323.376 352.042 322.953 351.946 322.526 351.953H312.798C312.395 351.946 311.997 352.044 311.643 352.236C311.289 352.429 310.991 352.709 310.777 353.051L309.635 354.972C309.421 355.313 309.123 355.593 308.769 355.785C308.415 355.978 308.018 356.076 307.615 356.07H301.807C301.482 356.068 301.16 356.133 300.862 356.261C300.563 356.389 300.294 356.578 300.073 356.815C299.851 357.053 299.681 357.334 299.573 357.64C299.465 357.946 299.422 358.272 299.446 358.596L301.324 391.086C301.37 391.763 301.669 392.398 302.161 392.865C302.653 393.333 303.302 393.599 303.981 393.611H349.987C350.312 393.615 350.635 393.551 350.934 393.424C351.233 393.296 351.503 393.107 351.725 392.87C351.947 392.632 352.117 392.35 352.224 392.043C352.332 391.736 352.374 391.41 352.348 391.086L350.47 358.596C350.429 357.919 350.133 357.282 349.642 356.814C349.152 356.346 348.502 356.08 347.824 356.07H328.225C327.811 356.063 327.404 355.96 327.037 355.769C326.669 355.579 326.35 355.306 326.105 354.972Z" fill="#E0E0E0"/>
<path d="M352.458 359.2H310.295C309.434 359.213 308.607 359.541 307.97 360.121C307.333 360.702 306.93 361.494 306.836 362.351L304.3 390.493C304.256 390.896 304.299 391.304 304.425 391.689C304.552 392.074 304.759 392.428 305.034 392.726C305.309 393.025 305.644 393.261 306.017 393.419C306.39 393.578 306.793 393.654 307.199 393.644H349.351C350.214 393.631 351.042 393.303 351.681 392.723C352.319 392.143 352.725 391.35 352.821 390.493L355.313 362.34C355.357 361.941 355.315 361.538 355.191 361.156C355.067 360.774 354.863 360.424 354.593 360.127C354.323 359.83 353.993 359.594 353.625 359.434C353.257 359.274 352.859 359.194 352.458 359.2Z" fill="#F0F0F0"/>
<path d="M274.501 469.461C392.077 469.461 487.392 463.896 487.392 457.032C487.392 450.167 392.077 444.602 274.501 444.602C156.924 444.602 61.6094 450.167 61.6094 457.032C61.6094 463.896 156.924 469.461 274.501 469.461Z" fill="#F5F5F5"/>
<path d="M177.469 139.457H68.0202C66.583 139.457 65.418 140.622 65.418 142.059V333.287C65.418 334.724 66.583 335.889 68.0202 335.889H177.469C178.906 335.889 180.071 334.724 180.071 333.287V142.059C180.071 140.622 178.906 139.457 177.469 139.457Z" fill="#3354F4"/>
<path opacity="0.7" d="M177.469 139.457H68.0202C66.583 139.457 65.418 140.622 65.418 142.059V333.287C65.418 334.724 66.583 335.889 68.0202 335.889H177.469C178.906 335.889 180.071 334.724 180.071 333.287V142.059C180.071 140.622 178.906 139.457 177.469 139.457Z" fill="white"/>
<path d="M94.8008 164.349H73.2031V167.28H94.8008V164.349Z" fill="#3354F4"/>
<path d="M94.8008 170.937H73.2031V173.868H94.8008V170.937Z" fill="#3354F4"/>
<path d="M171.705 164.349H150.107V167.28H171.705V164.349Z" fill="#3354F4"/>
<path d="M131.441 150.788H109.844V153.72H131.441V150.788Z" fill="#3354F4"/>
<path d="M171.705 145.672H73.2031V148.603H171.705V145.672Z" fill="#3354F4"/>
<path d="M171.694 180.072H84.1836V183.004H171.694V180.072Z" fill="#3354F4"/>
<path d="M171.705 185.924H73.2031V188.856H171.705V185.924Z" fill="#3354F4"/>
<path d="M171.705 191.788H73.2031V194.719H171.705V191.788Z" fill="#3354F4"/>
<path d="M171.705 197.64H73.2031V200.572H171.705V197.64Z" fill="#3354F4"/>
<path d="M160.714 203.492H73.2031V206.424H160.714V203.492Z" fill="#3354F4"/>
<path d="M171.694 214.132H84.1836V217.064H171.694V214.132Z" fill="#3354F4"/>
<path d="M171.705 219.984H73.2031V222.916H171.705V219.984Z" fill="#3354F4"/>
<path d="M171.705 225.848H73.2031V228.779H171.705V225.848Z" fill="#3354F4"/>
<path d="M171.705 231.7H73.2031V234.632H171.705V231.7Z" fill="#3354F4"/>
<path d="M160.714 237.552H73.2031V240.484H160.714V237.552Z" fill="#3354F4"/>
<path d="M171.694 248.192H84.1836V251.124H171.694V248.192Z" fill="#3354F4"/>
<path d="M171.705 254.044H73.2031V256.976H171.705V254.044Z" fill="#3354F4"/>
<path d="M171.705 259.908H73.2031V262.839H171.705V259.908Z" fill="#3354F4"/>
<path d="M171.705 265.76H73.2031V268.692H171.705V265.76Z" fill="#3354F4"/>
<path d="M160.714 271.612H73.2031V274.544H160.714V271.612Z" fill="#3354F4"/>
<path d="M171.694 283.35H84.1836V286.282H171.694V283.35Z" fill="#3354F4"/>
<path d="M171.705 289.202H73.2031V292.134H171.705V289.202Z" fill="#3354F4"/>
<path d="M171.705 295.066H73.2031V297.997H171.705V295.066Z" fill="#3354F4"/>
<path d="M171.705 300.918H73.2031V303.85H171.705V300.918Z" fill="#3354F4"/>
<path d="M160.714 306.77H73.2031V309.702H160.714V306.77Z" fill="#3354F4"/>
<path d="M171.705 323.657H150.107V326.589H171.705V323.657Z" fill="#3354F4"/>
<g opacity="0.2">
<path d="M94.8008 164.349H73.2031V167.28H94.8008V164.349Z" fill="white"/>
<path d="M94.8008 170.937H73.2031V173.868H94.8008V170.937Z" fill="white"/>
<path d="M171.705 164.349H150.107V167.28H171.705V164.349Z" fill="white"/>
<path d="M131.441 150.788H109.844V153.72H131.441V150.788Z" fill="white"/>
<path d="M171.705 145.672H73.2031V148.603H171.705V145.672Z" fill="white"/>
<path d="M171.694 180.072H84.1836V183.004H171.694V180.072Z" fill="white"/>
<path d="M171.705 185.924H73.2031V188.856H171.705V185.924Z" fill="white"/>
<path d="M171.705 191.788H73.2031V194.719H171.705V191.788Z" fill="white"/>
<path d="M171.705 197.64H73.2031V200.572H171.705V197.64Z" fill="white"/>
<path d="M160.714 203.492H73.2031V206.424H160.714V203.492Z" fill="white"/>
<path d="M171.694 214.132H84.1836V217.064H171.694V214.132Z" fill="white"/>
<path d="M171.705 219.984H73.2031V222.916H171.705V219.984Z" fill="white"/>
<path d="M171.705 225.848H73.2031V228.779H171.705V225.848Z" fill="white"/>
<path d="M171.705 231.7H73.2031V234.632H171.705V231.7Z" fill="white"/>
<path d="M160.714 237.552H73.2031V240.484H160.714V237.552Z" fill="white"/>
<path d="M171.694 248.192H84.1836V251.124H171.694V248.192Z" fill="white"/>
<path d="M171.705 254.044H73.2031V256.976H171.705V254.044Z" fill="white"/>
<path d="M171.705 259.908H73.2031V262.839H171.705V259.908Z" fill="white"/>
<path d="M171.705 265.76H73.2031V268.692H171.705V265.76Z" fill="white"/>
<path d="M160.714 271.612H73.2031V274.544H160.714V271.612Z" fill="white"/>
<path d="M171.694 283.35H84.1836V286.282H171.694V283.35Z" fill="white"/>
<path d="M171.705 289.202H73.2031V292.134H171.705V289.202Z" fill="white"/>
<path d="M171.705 295.066H73.2031V297.997H171.705V295.066Z" fill="white"/>
<path d="M171.705 300.918H73.2031V303.85H171.705V300.918Z" fill="white"/>
<path d="M160.714 306.77H73.2031V309.702H160.714V306.77Z" fill="white"/>
<path d="M171.705 323.658H150.107V326.589H171.705V323.658Z" fill="white"/>
</g>
<path opacity="0.1" d="M182.96 291.299H121.911C120.474 291.299 119.309 292.464 119.309 293.902V343.74C119.309 345.177 120.474 346.342 121.911 346.342H182.96C184.397 346.342 185.562 345.177 185.562 343.74V293.902C185.562 292.464 184.397 291.299 182.96 291.299Z" fill="black"/>
<path d="M191.13 301.719H130.081C128.644 301.719 127.479 302.884 127.479 304.322V354.16C127.479 355.597 128.644 356.762 130.081 356.762H191.13C192.567 356.762 193.732 355.597 193.732 354.16V304.322C193.732 302.884 192.567 301.719 191.13 301.719Z" fill="#3354F4"/>
<path opacity="0.3" d="M191.13 301.719H130.081C128.644 301.719 127.479 302.884 127.479 304.322V354.16C127.479 355.597 128.644 356.762 130.081 356.762H191.13C192.567 356.762 193.732 355.597 193.732 354.16V304.322C193.732 302.884 192.567 301.719 191.13 301.719Z" fill="white"/>
<path d="M147.131 333.792H133.955V340.38H147.131V333.792Z" fill="#3354F4"/>
<path d="M185.562 333.792H148.23V340.38H185.562V333.792Z" fill="#3354F4"/>
<path d="M147.131 325.008H133.955V332.694H147.131V325.008Z" fill="#3354F4"/>
<path d="M147.131 317.322H133.955V323.91H147.131V317.322Z" fill="#3354F4"/>
<path d="M185.562 325.008H148.23V332.694H185.562V325.008Z" fill="#3354F4"/>
<path d="M185.562 341.478H148.23V349.164H185.562V341.478Z" fill="#3354F4"/>
<path d="M185.562 317.322H148.23V323.91H185.562V317.322Z" fill="#3354F4"/>
<path d="M147.131 341.478H133.955V349.164H147.131V341.478Z" fill="#3354F4"/>
<path d="M147.131 308.538H133.955V316.224H147.131V308.538Z" fill="#3354F4"/>
<path d="M185.562 308.538H148.23V316.224H185.562V308.538Z" fill="#3354F4"/>
<path opacity="0.1" d="M201.923 196.125H140.874C139.437 196.125 138.271 197.29 138.271 198.727V248.565C138.271 250.002 139.437 251.168 140.874 251.168H201.923C203.36 251.168 204.525 250.002 204.525 248.565V198.727C204.525 197.29 203.36 196.125 201.923 196.125Z" fill="black"/>
<path d="M214.186 193.522H153.137C151.7 193.522 150.535 194.688 150.535 196.125V245.963C150.535 247.4 151.7 248.565 153.137 248.565H214.186C215.623 248.565 216.788 247.4 216.788 245.963V196.125C216.788 194.688 215.623 193.522 214.186 193.522Z" fill="#3354F4"/>
<path opacity="0.3" d="M214.186 193.522H153.137C151.7 193.522 150.535 194.688 150.535 196.125V245.963C150.535 247.4 151.7 248.565 153.137 248.565H214.186C215.623 248.565 216.788 247.4 216.788 245.963V196.125C216.788 194.688 215.623 193.522 214.186 193.522Z" fill="white"/>
<path d="M209.718 200.934H193.248V208.62H209.718V200.934Z" fill="#3354F4"/>
<path d="M192.15 200.934H175.68V208.62H192.15V200.934Z" fill="#3354F4"/>
<path d="M192.15 208.62H175.68V241.56H192.15V208.62Z" fill="#3354F4"/>
<path d="M209.718 208.62H193.248V241.56H209.718V208.62Z" fill="#3354F4"/>
<path d="M174.581 200.934H158.111V208.62H174.581V200.934Z" fill="#3354F4"/>
<path d="M174.581 208.62H158.111V241.56H174.581V208.62Z" fill="#3354F4"/>
<path opacity="0.1" d="M222.675 253.891H161.626C160.189 253.891 159.023 255.056 159.023 256.493V306.331C159.023 307.768 160.189 308.933 161.626 308.933H222.675C224.112 308.933 225.277 307.768 225.277 306.331V256.493C225.277 255.056 224.112 253.891 222.675 253.891Z" fill="black"/>
<path d="M244.93 250.366H183.882C182.444 250.366 181.279 251.531 181.279 252.968V302.806C181.279 304.244 182.444 305.409 183.882 305.409H244.93C246.368 305.409 247.533 304.244 247.533 302.806V252.968C247.533 251.531 246.368 250.366 244.93 250.366Z" fill="#3354F4"/>
<path opacity="0.3" d="M244.93 250.366H183.882C182.444 250.366 181.279 251.531 181.279 252.968V302.806C181.279 304.244 182.444 305.409 183.882 305.409H244.93C246.368 305.409 247.533 304.244 247.533 302.806V252.968C247.533 251.531 246.368 250.366 244.93 250.366Z" fill="white"/>
<path d="M240.461 258.03H215.207V276.696H240.461V258.03Z" fill="#3354F4"/>
<path d="M214.109 258.03H188.855V276.696H214.109V258.03Z" fill="#3354F4"/>
<path d="M214.109 277.794H188.855V298.656H214.109V277.794Z" fill="#3354F4"/>
<path d="M240.461 277.794H215.207V298.656H240.461V277.794Z" fill="#3354F4"/>
<path opacity="0.2" d="M247.051 252.968V289.872H224.289C223.65 289.892 223.014 289.778 222.422 289.536C221.83 289.294 221.295 288.931 220.853 288.469C220.411 288.007 220.071 287.457 219.855 286.855C219.639 286.253 219.553 285.613 219.601 284.975V250.344H244.932C246.37 250.344 247.051 251.53 247.051 252.968Z" fill="black"/>
<path opacity="0.1" d="M224.057 144.376H163.009C161.571 144.376 160.406 145.541 160.406 146.978V196.816C160.406 198.254 161.571 199.419 163.009 199.419H224.057C225.494 199.419 226.66 198.254 226.66 196.816V146.978C226.66 145.541 225.494 144.376 224.057 144.376Z" fill="black"/>
<path d="M235.05 134.483H174.001C172.564 134.483 171.398 135.648 171.398 137.085V186.924C171.398 188.361 172.564 189.526 174.001 189.526H235.05C236.487 189.526 237.652 188.361 237.652 186.924V137.085C237.652 135.648 236.487 134.483 235.05 134.483Z" fill="#3354F4"/>
<path opacity="0.3" d="M235.05 134.483H174.001C172.564 134.483 171.398 135.648 171.398 137.085V186.924C171.398 188.361 172.564 189.526 174.001 189.526H235.05C236.487 189.526 237.652 188.361 237.652 186.924V137.085C237.652 135.648 236.487 134.483 235.05 134.483Z" fill="white"/>
<path d="M218.503 141.642H197.641V147.132H218.503V141.642Z" fill="#3354F4"/>
<path d="M207.523 148.23H197.641V182.268H207.523V148.23Z" fill="#3354F4"/>
<path d="M230.58 141.642H219.6V147.132H230.58V141.642Z" fill="#3354F4"/>
<path d="M230.58 148.23H219.6V182.268H230.58V148.23Z" fill="#3354F4"/>
<path d="M218.501 148.23H208.619V182.268H218.501V148.23Z" fill="#3354F4"/>
<path d="M196.543 148.23H178.975V182.268H196.543V148.23Z" fill="#3354F4"/>
<path d="M196.543 141.642H178.975V147.132H196.543V141.642Z" fill="#3354F4"/>
<path d="M417.339 263.18H342.588C339.731 263.18 337.416 265.495 337.416 268.351V343.103C337.416 345.959 339.731 348.275 342.588 348.275H417.339C420.196 348.275 422.511 345.959 422.511 343.103V268.351C422.511 265.495 420.196 263.18 417.339 263.18Z" fill="#3354F4"/>
<path opacity="0.25" d="M411.75 274.302H348.527V337.163H411.75V274.302Z" fill="white"/>
<path opacity="0.25" d="M348.527 337.086L364.624 323.855L369.883 328.093L386.551 314.017L394.742 322.076L411.75 307.802V337.086H348.527Z" fill="white"/>
<path opacity="0.25" d="M348.527 337.086L362.153 311.525L378.074 314.006L389.977 298.458L402.23 300.665L411.75 291.157V337.086H348.527Z" fill="white"/>
<path opacity="0.25" d="M348.527 337.086L379.963 333.199L390.152 328.104L401.132 329.202L411.75 323.91V337.086H348.527Z" fill="white"/>
<path opacity="0.2" d="M413.946 263.52V272.304C413.887 273.741 413.289 275.103 412.272 276.12C411.255 277.137 409.893 277.735 408.456 277.794H346.968V303.575C346.897 304.961 346.279 306.262 345.25 307.192C344.22 308.123 342.864 308.607 341.478 308.538H337.086V268.351C337.086 265.496 339.721 263.52 342.576 263.52H413.946Z" fill="black"/>
<path d="M313.699 190.92H238.947C236.091 190.92 233.775 193.236 233.775 196.092V270.844C233.775 273.7 236.091 276.015 238.947 276.015H313.699C316.555 276.015 318.87 273.7 318.87 270.844V196.092C318.87 193.236 316.555 190.92 313.699 190.92Z" fill="#3354F4"/>
<path opacity="0.8" d="M287.139 199.803H265.168C264.641 199.803 264.213 200.231 264.213 200.758V213.155C264.213 213.682 264.641 214.11 265.168 214.11H287.139C287.667 214.11 288.094 213.682 288.094 213.155V200.758C288.094 200.231 287.667 199.803 287.139 199.803Z" fill="white"/>
<path opacity="0.6" d="M270.372 230.58H252.969C252.441 230.58 252.014 231.008 252.014 231.535V240.55C252.014 241.077 252.441 241.505 252.969 241.505H270.372C270.9 241.505 271.327 241.077 271.327 240.55V231.535C271.327 231.008 270.9 230.58 270.372 230.58Z" fill="white"/>
<path opacity="0.6" d="M299.677 230.58H282.274C281.746 230.58 281.318 231.008 281.318 231.535V240.55C281.318 241.077 281.746 241.505 282.274 241.505H299.677C300.204 241.505 300.632 241.077 300.632 240.55V231.535C300.632 231.008 300.204 230.58 299.677 230.58Z" fill="white"/>
<path opacity="0.4" d="M281.66 253.693H273.436C272.908 253.693 272.48 254.121 272.48 254.648V262.071C272.48 262.598 272.908 263.026 273.436 263.026H281.66C282.187 263.026 282.615 262.598 282.615 262.071V254.648C282.615 254.121 282.187 253.693 281.66 253.693Z" fill="white"/>
<path opacity="0.4" d="M294.527 253.693H286.303C285.775 253.693 285.348 254.121 285.348 254.648V262.071C285.348 262.598 285.775 263.026 286.303 263.026H294.527C295.054 263.026 295.482 262.598 295.482 262.071V254.648C295.482 254.121 295.054 253.693 294.527 253.693Z" fill="white"/>
<path opacity="0.4" d="M307.408 253.693H299.184C298.656 253.693 298.229 254.121 298.229 254.648V262.071C298.229 262.598 298.656 263.026 299.184 263.026H307.408C307.935 263.026 308.363 262.598 308.363 262.071V254.648C308.363 254.121 307.935 253.693 307.408 253.693Z" fill="white"/>
<path opacity="0.4" d="M251.871 253.693H243.647C243.119 253.693 242.691 254.121 242.691 254.648V262.071C242.691 262.598 243.119 263.026 243.647 263.026H251.871C252.398 263.026 252.826 262.598 252.826 262.071V254.648C252.826 254.121 252.398 253.693 251.871 253.693Z" fill="white"/>
<path opacity="0.4" d="M265.837 253.693H257.613C257.086 253.693 256.658 254.121 256.658 254.648V262.071C256.658 262.598 257.086 263.026 257.613 263.026H265.837C266.365 263.026 266.793 262.598 266.793 262.071V254.648C266.793 254.121 266.365 253.693 265.837 253.693Z" fill="white"/>
<g opacity="0.3">
<path d="M289.872 230.58H290.97V222.894H276.696V214.11H275.598V222.894H261.324V230.58H262.422V223.992H289.872V230.58Z" fill="white"/>
<path d="M261.325 248.148H247.051V253.638H248.149V249.246H261.325V253.638H262.423V241.56H261.325V248.148Z" fill="white"/>
<path d="M290.971 249.246V241.56H289.873V249.246H276.697V253.638H277.795V250.344H289.873V253.638H290.971V250.344H303.049V253.638H304.147V249.246H290.971Z" fill="white"/>
</g>
<path opacity="0.2" d="M318.421 196.092V220.698H258.108C256.66 220.65 255.283 220.058 254.251 219.041C253.22 218.024 252.609 216.655 252.541 215.208V191.052H313.711C314.359 191.047 315.001 191.177 315.597 191.433C316.192 191.689 316.728 192.065 317.171 192.539C317.614 193.013 317.953 193.573 318.168 194.184C318.384 194.796 318.47 195.445 318.421 196.092Z" fill="black"/>
<path d="M430.382 153.929H355.631C352.774 153.929 350.459 156.244 350.459 159.1V233.852C350.459 236.708 352.774 239.024 355.631 239.024H430.382C433.239 239.024 435.554 236.708 435.554 233.852V159.1C435.554 156.244 433.239 153.929 430.382 153.929Z" fill="#3354F4"/>
<path opacity="0.25" d="M424.619 165.04H361.396V227.901H424.619V165.04Z" fill="white"/>
<path opacity="0.35" d="M374.22 203.679H367.852V220.006H374.22V203.679Z" fill="white"/>
<path opacity="0.35" d="M374.22 203.679H367.852V227.901H374.22V203.679Z" fill="white"/>
<path opacity="0.35" d="M385.2 192.238H378.832V216.273H385.2V192.238Z" fill="white"/>
<path opacity="0.35" d="M385.2 192.238H378.832V227.901H385.2V192.238Z" fill="white"/>
<path opacity="0.35" d="M396.191 199.276H389.822V218.568H396.191V199.276Z" fill="white"/>
<path opacity="0.35" d="M396.191 199.276H389.822V227.901H396.191V199.276Z" fill="white"/>
<path opacity="0.35" d="M407.183 189.394H400.814V215.351H407.183V189.394Z" fill="white"/>
<path opacity="0.35" d="M407.183 189.394H400.814V227.901H407.183V189.394Z" fill="white"/>
<path opacity="0.35" d="M418.163 174.297H411.795V210.421H418.163V174.297Z" fill="white"/>
<path opacity="0.35" d="M418.163 174.297H411.795V227.901H418.163V174.297Z" fill="white"/>
<path opacity="0.2" d="M373.32 153.72V200.275C373.285 201.648 372.707 202.951 371.713 203.898C370.719 204.845 369.389 205.358 368.016 205.326H350.262V159.089C350.292 157.677 350.866 156.33 351.864 155.33C352.862 154.33 354.208 153.754 355.62 153.72H373.32Z" fill="black"/>
<path d="M360.211 95.5699H285.459C282.603 95.5699 280.287 97.8853 280.287 100.742V175.493C280.287 178.35 282.603 180.665 285.459 180.665H360.211C363.067 180.665 365.382 178.35 365.382 175.493V100.742C365.382 97.8853 363.067 95.5699 360.211 95.5699Z" fill="#3354F4"/>
<path opacity="0.25" d="M350.39 142.591C352.859 127.382 342.53 113.05 327.32 110.581C312.11 108.113 297.779 118.441 295.31 133.651C292.841 148.861 303.17 163.192 318.38 165.661C333.589 168.13 347.921 157.801 350.39 142.591Z" fill="white"/>
<path opacity="0.25" d="M322.812 138.117L350.262 143.322C349.272 148.522 346.824 153.333 343.203 157.194C339.582 161.054 334.937 163.805 329.811 165.125C324.685 166.445 319.29 166.28 314.254 164.648C309.219 163.017 304.751 159.987 301.373 155.912C297.995 151.836 295.846 146.884 295.177 141.634C294.508 136.383 295.346 131.05 297.594 126.258C299.842 121.466 303.406 117.412 307.872 114.57C312.337 111.728 317.519 110.214 322.812 110.206V138.117Z" fill="white"/>
<path opacity="0.25" d="M322.813 138.117V166.018C315.507 165.863 308.554 162.85 303.446 157.625C298.338 152.401 295.482 145.381 295.492 138.074C295.502 130.767 298.377 123.756 303.5 118.545C308.622 113.335 315.584 110.341 322.89 110.206L322.813 138.117Z" fill="white"/>
<path opacity="0.25" d="M322.812 138.117L308.109 114.401C310.291 113.041 312.653 111.995 315.126 111.293C317.595 110.578 320.152 110.208 322.724 110.195L322.812 138.117Z" fill="white"/>
<path d="M470.218 193.248C470.218 193.248 485.041 219.227 486.139 225.452C487.237 231.678 473.512 271.481 473.512 271.481C473.512 271.481 476.532 281.955 473.238 283.723C469.944 285.491 464.19 289.049 463.356 286.029C462.521 283.01 463.356 273.051 463.356 273.051L465.837 270.932C465.837 270.932 474.621 229.339 474.621 227.901C474.621 226.463 458.689 201.933 458.689 201.933L470.218 193.248Z" fill="#E4897B"/>
<path d="M415.572 446.919L406.667 447.852L406.217 442.692L404.998 428.648L413.903 427.704L415.253 443.219L415.572 446.919Z" fill="#E4897B"/>
<path d="M460.018 445.788H451.388L451.311 443.834L451.3 443.592L450.86 431.075L450.849 430.822L450.674 426.024H459.315L460.018 445.788Z" fill="#E4897B"/>
<path opacity="0.2" d="M413.903 427.704L415.253 443.219L406.217 442.692L404.998 428.648L413.903 427.704Z" fill="black"/>
<path opacity="0.2" d="M459.963 444.69H459.952L451.311 443.592H451.3L450.85 431.514H450.861L459.513 432.206L459.952 444.306L459.963 444.69Z" fill="black"/>
<path d="M480.134 205.688L465.278 215.79L464.993 215.428L455.978 203.679L450.488 196.476L458.646 174.297C468.023 177.876 480.134 205.688 480.134 205.688Z" fill="#263238"/>
<path opacity="0.2" d="M464.993 215.428L455.979 203.679L463.214 192.578C463.214 192.578 467.639 204.041 464.993 215.428Z" fill="black"/>
<path d="M450.18 445.272H460.666C460.838 445.271 461.005 445.329 461.139 445.437C461.273 445.545 461.366 445.696 461.401 445.865L463.103 453.551C463.139 453.737 463.133 453.929 463.086 454.113C463.039 454.297 462.952 454.468 462.831 454.615C462.711 454.762 462.56 454.88 462.389 454.962C462.217 455.043 462.03 455.087 461.841 455.088C458.448 455.033 455.977 454.825 451.717 454.825C449.093 454.825 441.176 455.099 437.553 455.099C433.929 455.099 433.457 451.52 434.94 451.19C441.593 449.741 446.6 447.732 448.73 445.821C449.124 445.458 449.644 445.261 450.18 445.272Z" fill="#263238"/>
<path d="M405.723 444.998H416.209C416.381 444.996 416.548 445.055 416.682 445.163C416.816 445.271 416.909 445.422 416.944 445.59L418.646 453.276C418.682 453.463 418.676 453.655 418.629 453.839C418.582 454.022 418.495 454.194 418.374 454.34C418.254 454.487 418.103 454.605 417.932 454.687C417.76 454.769 417.573 454.812 417.383 454.814C413.991 454.759 411.52 454.55 407.26 454.55C404.636 454.55 396.719 454.825 393.096 454.825C389.472 454.825 389 451.245 390.482 450.916C397.136 449.466 402.143 447.457 404.273 445.547C404.667 445.183 405.187 444.986 405.723 444.998Z" fill="#263238"/>
<path d="M404.185 441.396H416.845C416.845 441.396 415.812 332.42 429.504 295.615C430.471 307.78 431.558 320.396 432.623 330.915C433.282 337.426 433.951 342.993 434.577 347.286C438.563 374.736 448.61 442.494 448.61 442.494H461.16C461.16 442.494 459.666 377.558 458.195 350.591C456.559 321.308 455.856 256.932 455.78 251.442H409.949C405.59 274.5 394.412 366.732 404.185 441.396Z" fill="#3354F4"/>
<path opacity="0.6" d="M404.185 441.396H416.845C416.845 441.396 415.812 332.42 429.504 295.615C430.471 307.78 431.558 320.396 432.623 330.915C433.282 337.426 433.951 342.993 434.577 347.286C438.563 374.736 448.61 442.494 448.61 442.494H461.16C461.16 442.494 459.666 377.558 458.195 350.591C456.559 321.308 455.856 256.932 455.78 251.442H409.949C405.59 274.5 394.412 366.732 404.185 441.396Z" fill="white"/>
<path d="M426.573 154.675C426.683 155.093 426.803 155.51 426.946 155.894C427.978 158.776 430.066 161.158 432.788 162.559C434.87 163.672 437.26 164.072 439.591 163.699C441.923 163.327 444.068 162.201 445.7 160.495C450.026 156.103 449.916 151.085 450.4 142.553C450.548 140.56 450.184 138.563 449.341 136.75C448.499 134.938 447.206 133.372 445.587 132.201C443.968 131.029 442.075 130.292 440.091 130.059C438.106 129.827 436.094 130.106 434.248 130.871C425.87 134.285 424.728 146.989 426.573 154.675Z" fill="#E4897B"/>
<path opacity="0.2" d="M431.219 161.593C431.717 161.954 432.242 162.277 432.789 162.559C434.218 163.317 435.799 163.747 437.415 163.817C439.031 163.887 440.643 163.596 442.133 162.965C441.754 161.936 441.24 160.961 440.607 160.066C437.396 159.665 434.137 160.194 431.219 161.593Z" fill="black"/>
<path d="M448.402 172.661C444.196 176.482 433.897 175.065 433.897 175.065C433.897 175.065 427.463 173.308 428.813 171.299C432.601 170.673 434.435 168.905 435.193 166.643C435.608 165.241 435.738 163.771 435.577 162.317C435.514 161.507 435.408 160.701 435.259 159.902L447.984 150.426C446.326 156.696 444.284 168.148 448.402 172.661Z" fill="#E4897B"/>
<path d="M430.669 136.58C430.756 136.822 430.537 137.316 430.372 137.876C430.066 138.973 429.911 140.107 429.911 141.247C429.946 143.104 430.353 144.935 431.107 146.632C431.862 148.329 432.948 149.858 434.303 151.129C435.255 154.58 436.542 157.931 438.146 161.132C438.284 161.462 438.503 161.753 438.783 161.977C439.161 162.173 439.591 162.246 440.013 162.186L447.457 161.933C447.675 161.955 447.895 161.929 448.101 161.857C448.308 161.785 448.497 161.668 448.654 161.516C448.768 161.302 448.86 161.078 448.928 160.846C449.598 159.243 452.431 160.001 453.408 158.562C453.693 157.911 453.888 157.224 453.99 156.52C454.605 154.741 457.119 153.819 457.032 151.93C456.977 150.832 455.934 149.844 456.285 148.79C456.636 147.736 457.932 147.407 458.481 146.462C459.03 145.518 458.481 144.266 457.877 143.388C457.521 142.972 457.254 142.487 457.092 141.964C456.929 141.441 456.875 140.891 456.933 140.346C457.085 139.941 457.276 139.551 457.504 139.183C457.855 138.441 457.972 137.611 457.841 136.801C457.709 135.991 457.335 135.24 456.768 134.648C456.249 134.243 455.791 133.766 455.407 133.231C454.901 132.276 455.33 131.035 454.715 130.08C454.1 129.125 452.837 129.158 451.761 129.224C450.685 129.29 449.411 129.224 448.775 128.411C448.313 127.785 448.335 126.896 447.83 126.314C447.106 125.501 445.788 125.721 444.767 126.127C443.746 126.534 442.626 127.05 441.638 126.599C440.946 126.281 440.54 125.578 439.914 125.161C439.471 124.875 438.948 124.736 438.421 124.766C437.894 124.795 437.39 124.992 436.982 125.326C436.433 125.798 436.104 126.512 435.478 126.885C434.522 127.263 433.458 127.263 432.502 126.885C432.027 126.695 431.509 126.639 431.004 126.722C430.499 126.805 430.026 127.025 429.636 127.357C428.714 128.455 429.713 130.41 428.769 131.518C428.231 132.155 427.243 132.243 426.661 132.836C426.482 133.051 426.359 133.307 426.304 133.58C426.248 133.854 426.261 134.137 426.341 134.405C426.422 134.673 426.567 134.916 426.765 135.114C426.962 135.311 427.206 135.457 427.473 135.537C427.803 135.603 428.231 135.625 428.352 135.932C428.384 136.07 428.406 136.209 428.418 136.35C428.538 136.778 429.142 136.8 429.516 136.657C430.284 136.361 430.592 136.383 430.669 136.58Z" fill="#263238"/>
<path d="M436.071 147.516C435.91 148.32 435.571 149.077 435.079 149.733C434.587 150.388 433.954 150.925 433.227 151.304C431.493 152.04 430.351 149.592 430.603 147.033C430.845 144.749 432.02 141.543 433.897 141.971C435.775 142.4 436.675 145.222 436.071 147.516Z" fill="#E4897B"/>
<path opacity="0.2" d="M429.506 295.56C430.472 307.725 431.559 320.374 432.624 330.893C434.183 315.708 436.094 304.882 436.094 304.882C436.094 304.882 437.884 303.41 442.803 295.56C447.722 287.709 442.803 273.051 442.803 273.051C442.956 286.666 429.506 295.56 429.506 295.56Z" fill="black"/>
<path d="M457.867 260.588L405.525 258.03C406.683 238.965 409.008 219.989 412.487 201.209C413.917 193.664 415.75 186.202 417.977 178.853C419.11 175.125 420.44 171.46 421.962 167.873C421.962 167.873 454.496 170.552 461.161 175.68C467.826 180.808 457.505 233.874 457.867 260.588Z" fill="#263238"/>
<path d="M430.57 168.741C430.57 168.741 435.544 164.832 444.844 165.04C454.144 165.249 455.089 168.741 455.089 168.741C455.089 168.741 465.333 173.846 457.285 182.268C449.236 190.69 433.381 169.356 433.381 169.356L430.57 168.741Z" fill="#263238"/>
<path opacity="0.25" d="M430.57 168.741C430.57 168.741 435.544 164.832 444.844 165.04C454.144 165.249 455.089 168.741 455.089 168.741C455.089 168.741 465.333 173.846 457.285 182.268C449.236 190.69 433.381 169.356 433.381 169.356L430.57 168.741Z" fill="white"/>
<path opacity="0.2" d="M422.786 179.523C422.786 179.523 420.535 194.346 412.486 201.209C413.916 193.664 415.749 186.202 417.976 178.853L422.786 179.523Z" fill="black"/>
<path d="M416.077 168.06C416.077 168.06 383.565 161.417 378.998 159.671C374.43 157.925 350.263 134.823 350.263 134.823L344.971 138.82C344.971 138.82 363.077 162.317 372.135 169.092C381.194 175.867 412.849 186.1 412.849 186.1L416.077 168.06Z" fill="#E4897B"/>
<path d="M422.862 168.06L394.545 162.888L393.82 182.455L414.979 191.052C414.979 191.052 428.319 177.667 422.862 168.06Z" fill="#263238"/>
<path d="M350.262 134.823C347.66 131.848 338.184 125.425 336.79 124.876C335.396 124.327 333.375 132.726 333.781 133.824C334.188 134.922 338.843 137.25 341.193 137.525C343.543 137.799 346.046 140.204 346.046 140.204L350.262 134.823Z" fill="#E4897B"/>
<path d="M393.007 162.175L396.115 162.888L394.698 182.806L391.723 181.719L393.007 162.175Z" fill="#263238"/>
<path opacity="0.25" d="M393.007 162.175L396.115 162.888L394.698 182.806L391.723 181.719L393.007 162.175Z" fill="white"/>
<path d="M463.357 215.625L480.135 204.261L481.288 207.16L465.301 217.217L463.357 215.625Z" fill="#263238"/>
<path opacity="0.25" d="M463.357 215.625L480.135 204.261L481.288 207.16L465.301 217.217L463.357 215.625Z" fill="white"/>
<path d="M402.758 437.828L403.384 441.396H418.338V438.102L402.758 437.828Z" fill="#3354F4"/>
<path d="M447.184 439.2L448.611 442.494H461.161L461.985 439.2H447.184Z" fill="#3354F4"/>
</svg>
