<svg width="24" height="25" viewBox="0 0 24 25" fill="none" xmlns="http://www.w3.org/2000/svg">
<path d="M19 20.5H5C4.46957 20.5 3.96086 20.2893 3.58579 19.9142C3.21071 19.5391 3 19.0304 3 18.5V6.5C3 5.96957 3.21071 5.46086 3.58579 5.08579C3.96086 4.71071 4.46957 4.5 5 4.5H15C15.5304 4.5 16.0391 4.71071 16.4142 5.08579C16.7893 5.46086 17 5.96957 17 6.5V7.5M19 20.5C18.4696 20.5 17.9609 20.2893 17.5858 19.9142C17.2107 19.5391 17 19.0304 17 18.5V7.5M19 20.5C19.5304 20.5 20.0391 20.2893 20.4142 19.9142C20.7893 19.5391 21 19.0304 21 18.5V9.5C21 8.96957 20.7893 8.46086 20.4142 8.08579C20.0391 7.71071 19.5304 7.5 19 7.5H17M13 4.5H9M7 16.5H13M7 8.5H13V12.5H7V8.5Z" stroke="#111928" stroke-width="1.5" stroke-linecap="round" stroke-linejoin="round"/>
</svg>
